<?xml version="1.0" encoding="UTF-8" standalone="no"?>
<svg
   width="750"
   height="750"
   viewBox="0 0 750 750"
   version="1.1"
   id="svg188"
   sodipodi:docname="Logo US Thionville-Lusitanos - 2021.svg"
   inkscape:version="1.2 (dc2aeda, 2022-05-15)"
   xml:space="preserve"
   xmlns:inkscape="http://www.inkscape.org/namespaces/inkscape"
   xmlns:sodipodi="http://sodipodi.sourceforge.net/DTD/sodipodi-0.dtd"
   xmlns="http://www.w3.org/2000/svg"
   xmlns:svg="http://www.w3.org/2000/svg"><sodipodi:namedview
     id="namedview190"
     pagecolor="#ffffff"
     bordercolor="#666666"
     borderopacity="1.0"
     inkscape:showpageshadow="2"
     inkscape:pageopacity="0.0"
     inkscape:pagecheckerboard="0"
     inkscape:deskcolor="#d1d1d1"
     showgrid="false"
     inkscape:zoom="0.71929828"
     inkscape:cx="364.24389"
     inkscape:cy="340.60974"
     inkscape:window-width="1920"
     inkscape:window-height="1080"
     inkscape:window-x="0"
     inkscape:window-y="0"
     inkscape:window-maximized="0"
     inkscape:current-layer="svg188" /><defs
     id="defs185" /><g
     id="g14176"
     style="stroke:none"
     transform="scale(1.177394)"><g
       id="g12716"
       style="stroke:none"><circle
         style="fill:#daa41e;fill-opacity:1;stroke:none;stroke-width:1.23209;stroke-linecap:square"
         id="path1805"
         cx="318.5"
         cy="318.5"
         r="318.5" /><circle
         style="fill:#282c2d;fill-opacity:1;stroke:none;stroke-width:1.21468;stroke-linecap:square"
         id="circle1807"
         cx="318.5"
         cy="318.5"
         r="314" /><circle
         style="fill:#daa41e;fill-opacity:1;stroke:none;stroke-width:1.17987;stroke-linecap:square"
         id="circle1809"
         cx="318.5"
         cy="318.5"
         r="305" /><circle
         style="fill:#ffffff;stroke:none;stroke-width:1.16246;stroke-linecap:square"
         id="circle1865"
         cx="318.5"
         cy="318.5"
         r="300.5" /></g><g
       id="g14164"
       style="stroke:none"><circle
         style="fill:#282c2d;fill-opacity:1;stroke:none;stroke-width:0.825908;stroke-linecap:square"
         id="circle2255"
         cx="318.5"
         cy="318.5"
         r="213.5" /><circle
         style="fill:#ffffff;fill-opacity:1;stroke:none;stroke-width:0.806566;stroke-linecap:square"
         id="circle2253"
         cx="318.5"
         cy="318.5"
         r="208.5" /><circle
         style="fill:#282c2d;fill-opacity:1;stroke:none;stroke-width:0.781422;stroke-linecap:square"
         id="circle2251"
         cx="318.5"
         cy="318.5"
         r="202" /><circle
         style="fill:#daa41e;fill-opacity:1;stroke:none;stroke-width:0.771751;stroke-linecap:square"
         id="circle2247"
         cx="318.5"
         cy="318.5"
         r="199.5" /></g></g><g
     id="g14284"
     style="stroke:none"
     transform="scale(1.177394)"><g
       id="g2636"
       style="fill:#282c2d;fill-opacity:1;stroke:none"><g
         id="g2301"
         transform="translate(-1.6557922,-89.983032)"
         style="fill:#282c2d;fill-opacity:1;stroke:none"><path
           d="m 35.409613,423.55046 h 24.811422 v -7.60119 H 50.086119 l 6.836287,-9.70466 c 0,0 2.15128,-2.86837 2.15128,-6.59726 0,-5.83236 -4.637203,-11.95155 -11.616909,-11.95155 -7.362156,0 -12.142777,5.68894 -12.142777,11.80813 h 7.6968 c 0,-2.39031 1.864442,-4.25475 4.15914,-4.25475 2.533729,0 4.254752,2.2947 4.254752,4.11133 0,1.38638 -0.669287,2.58154 -1.577604,3.68108 z"
           style="font-weight:bold;font-size:15px;line-height:1.25;font-family:'Big John';-inkscape-font-specification:'Big John Bold';letter-spacing:0px;white-space:pre;fill:#282c2d;fill-opacity:1;stroke:none;stroke-width:3.18708"
           id="path1624" /><path
           d="m 65.658,411.83793 c 0,6.50165 5.210877,11.71253 11.712521,11.71253 6.501644,0 11.760327,-5.21088 11.760327,-11.71253 v -12.3818 c 0,-6.50165 -5.306489,-11.76033 -11.760327,-11.76033 -6.501644,0 -11.712521,5.25868 -11.712521,11.71252 z m 7.505575,-12.3818 c 0,-2.2947 1.864442,-4.15914 4.206946,-4.15914 2.342504,0 4.206946,1.86444 4.206946,4.20694 v 12.2862 c 0,2.3425 -1.864442,4.20694 -4.206946,4.20694 -2.342504,0 -4.206946,-1.86444 -4.206946,-4.20694 z"
           style="font-weight:bold;font-size:15px;line-height:1.25;font-family:'Big John';-inkscape-font-specification:'Big John Bold';letter-spacing:0px;white-space:pre;fill:#282c2d;fill-opacity:1;stroke:none;stroke-width:3.18708"
           id="path1626" /></g><g
         id="g2307"
         transform="translate(-1.6557922,-89.983032)"
         style="fill:#282c2d;fill-opacity:1;stroke:none"><path
           d="m 553.70961,423.55046 h 24.81143 v -7.60119 h -10.13492 l 6.83629,-9.70466 c 0,0 2.15128,-2.86837 2.15128,-6.59726 0,-5.83236 -4.63721,-11.95155 -11.61691,-11.95155 -7.36216,0 -12.14278,5.68894 -12.14278,11.80813 h 7.6968 c 0,-2.39031 1.86444,-4.25475 4.15914,-4.25475 2.53373,0 4.25475,2.2947 4.25475,4.11133 0,1.38638 -0.66928,2.58154 -1.5776,3.68108 z"
           style="font-weight:bold;font-size:15px;line-height:1.25;font-family:'Big John';-inkscape-font-specification:'Big John Bold';letter-spacing:0px;white-space:pre;fill:#282c2d;fill-opacity:1;stroke:none;stroke-width:3.18708"
           id="path1718" /><path
           d="m 584.755,423.55046 h 9.41783 V 387.6958 H 584.755 Z"
           style="font-weight:bold;font-size:15px;line-height:1.25;font-family:'Big John';-inkscape-font-specification:'Big John Bold';letter-spacing:0px;white-space:pre;fill:#282c2d;fill-opacity:1;stroke:none;stroke-width:3.18708"
           id="path1720" /></g></g><g
       id="g2628"
       style="fill:#282c2d;fill-opacity:1;stroke:none"><path
         d="m 102.03525,133.49913 -7.447069,7.94565 18.218829,17.07558 c 6.62138,6.20588 16.80544,5.876 23.01133,-0.74537 6.13066,-6.54112 5.876,-16.80545 -0.74538,-23.01133 l -18.21882,-17.07558 -7.44706,7.94565 18.09843,16.96275 c 2.167,2.03101 2.2778,5.45162 0.24678,7.61861 -2.03101,2.167 -5.45162,2.2778 -7.61861,0.24678 z"
         style="font-weight:bold;font-size:55px;line-height:1.25;font-family:'Big John';-inkscape-font-specification:'Big John Bold';letter-spacing:-0.3px;word-spacing:-12px;white-space:pre;fill:#282c2d;fill-opacity:1;stroke:none"
         id="path2409" /><path
         d="m 176.37662,88.177548 9.54398,-4.89266 13.92526,27.163632 9.64186,-4.94283 -13.92526,-27.163632 9.73976,-4.99303 -4.91775,-9.59292 -28.9256,14.82852 z"
         style="font-weight:bold;font-size:55px;line-height:1.25;font-family:'Big John';-inkscape-font-specification:'Big John Bold';letter-spacing:-0.3px;word-spacing:-12px;white-space:pre;fill:#282c2d;fill-opacity:1;stroke:none"
         id="path2413" /><path
         d="m 212.52434,58.891058 12.6307,39.26867 10.31457,-3.31767 -4.81651,-14.97445 12.46126,-4.00814 4.81651,14.97445 10.31456,-3.31766 -12.6307,-39.26867 -10.31456,3.31767 4.49652,13.97964 -12.46125,4.00814 -4.49653,-13.97964 z"
         style="font-weight:bold;font-size:55px;line-height:1.25;font-family:'Big John';-inkscape-font-specification:'Big John Bold';letter-spacing:-0.3px;word-spacing:-12px;white-space:pre;fill:#282c2d;fill-opacity:1;stroke:none"
         id="path2415" /><path
         d="m 266.64277,86.495198 10.64087,-2.04185 -7.77356,-40.51092 -10.64087,2.04185 z"
         style="font-weight:bold;font-size:55px;line-height:1.25;font-family:'Big John';-inkscape-font-specification:'Big John Bold';letter-spacing:-0.3px;word-spacing:-12px;white-space:pre;fill:#282c2d;fill-opacity:1;stroke:none"
         id="path2417" /><path
         d="m 283.12614,62.537718 c 0.67353,11.36506 10.38582,19.9906 21.75088,19.31707 11.36506,-0.67352 20.0455,-10.38907 19.37197,-21.75413 -0.67352,-11.36506 -10.44722,-20.09715 -21.81228,-19.42362 -11.36506,0.67353 -19.98409,10.49562 -19.31057,21.86068 z m 30.35848,-1.85423 c 0.31887,5.38056 -3.80987,10.08806 -9.24534,10.41018 -5.38056,0.31887 -10.0364,-3.86803 -10.35527,-9.24859 -0.32212,-5.43546 3.80987,-10.08805 9.19043,-10.40692 5.43546,-0.32212 10.08806,3.80987 10.41018,9.24533 z"
         style="font-weight:bold;font-size:55px;line-height:1.25;font-family:'Big John';-inkscape-font-specification:'Big John Bold';letter-spacing:-0.3px;word-spacing:-12px;white-space:pre;fill:#282c2d;fill-opacity:1;stroke:none"
         id="path2419" /><path
         d="m 365.79754,85.225068 4.8543,-40.96338 -10.75972,-1.27506 -2.29122,19.33471 -17.09811,-21.63241 -4.36942,-0.5178 -4.8543,40.96338 10.75971,1.27506 2.2977,-19.38933 17.03702,21.68056 z"
         style="font-weight:bold;font-size:55px;line-height:1.25;font-family:'Big John';-inkscape-font-specification:'Big John Bold';letter-spacing:-0.3px;word-spacing:-12px;white-space:pre;fill:#282c2d;fill-opacity:1;stroke:none"
         id="path2421" /><path
         d="m 413.29144,55.480778 -17.13856,19.40121 -3.68322,-25.60032 -10.43725,-3.1074 6.66352,45.08063 4.74421,1.41245 30.18312,-34.11055 z"
         style="font-weight:bold;font-size:55px;line-height:1.25;font-family:'Big John';-inkscape-font-specification:'Big John Bold';letter-spacing:-0.3px;word-spacing:-12px;white-space:pre;fill:#282c2d;fill-opacity:1;stroke:none"
         id="path2423" /><path
         d="m 415.62529,100.6145 9.91793,4.36255 16.60869,-37.758632 -9.91793,-4.36255 z"
         style="font-weight:bold;font-size:55px;line-height:1.25;font-family:'Big John';-inkscape-font-specification:'Big John Bold';letter-spacing:-0.3px;word-spacing:-12px;white-space:pre;fill:#282c2d;fill-opacity:1;stroke:none"
         id="path2425" /><path
         d="m 432.87245,108.2486 22.30888,12.72923 5.39697,-9.45858 -12.89806,-7.35951 15.04611,-26.369382 -9.41081,-5.36972 z"
         style="font-weight:bold;font-size:55px;line-height:1.25;font-family:'Big John';-inkscape-font-specification:'Big John Bold';letter-spacing:-0.3px;word-spacing:-12px;white-space:pre;fill:#282c2d;fill-opacity:1;stroke:none"
         id="path2427" /><path
         d="m 461.40325,125.14448 20.4007,15.60547 6.61645,-8.64955 -11.79483,-9.02244 18.44586,-24.113892 -8.60586,-6.58303 z"
         style="font-weight:bold;font-size:55px;line-height:1.25;font-family:'Big John';-inkscape-font-specification:'Big John Bold';letter-spacing:-0.3px;word-spacing:-12px;white-space:pre;fill:#282c2d;fill-opacity:1;stroke:none"
         id="path2429" /><path
         d="m 487.40532,145.72098 18.05054,18.19547 6.28642,-6.23635 -10.41973,-10.50339 5.38835,-5.34544 9.21895,9.29297 6.48164,-6.43002 -9.21894,-9.29296 4.76362,-4.72568 10.41973,10.50339 6.36451,-6.31381 -18.05054,-18.19547 z"
         style="font-weight:bold;font-size:55px;line-height:1.25;font-family:'Big John';-inkscape-font-specification:'Big John Bold';letter-spacing:-0.3px;word-spacing:-12px;white-space:pre;fill:#282c2d;fill-opacity:1;stroke:none"
         id="path2431" /><path
         d="m 156.63565,102.62468 c -4.32625,-5.553892 -13.0261,-5.899712 -19.55327,-0.82959 -6.52721,5.07012 -8.24721,13.57953 -3.92095,19.1334 4.32624,5.55387 12.97512,5.93931 19.50229,0.86918 1.58093,-1.22774 3.78538,-1.12967 4.83316,0.2154 1.04739,1.34538 0.5669,3.45969 -1.01389,4.68761 -1.58093,1.22775 -3.70062,1.13346 -4.78218,-0.25502 l -8.92387,6.93184 c 4.46152,5.72737 13.12749,6.02987 19.65467,0.95975 6.5272,-5.07011 8.33201,-13.57577 4.00574,-19.12962 -1.85891,-2.38646 -4.46677,-3.84291 -7.45051,-4.31096 -3.96688,-0.67939 -8.51541,0.41627 -12.23795,3.30783 -1.58094,1.22775 -3.70062,1.13345 -4.74839,-0.21162 -1.04738,-1.34537 -0.65169,-3.46346 0.92911,-4.69139 1.58093,-1.22774 3.7854,-1.12967 4.83317,0.2154 z"
         style="font-weight:bold;font-size:55px;line-height:1.25;font-family:'Big John';-inkscape-font-specification:'Big John Bold';letter-spacing:-0.3px;word-spacing:-12px;white-space:pre;fill:#282c2d;fill-opacity:1;stroke:none;stroke-width:1.08351"
         id="path2446" /></g><g
       id="g2614"
       style="fill:#282c2d;fill-opacity:1;stroke:none"><path
         d="m 158.53165,540.3336 20.4275,15.57036 6.60157,-8.66092 -11.81034,-9.00213 18.40438,-24.14558 -8.61717,-6.56822 z"
         style="font-weight:bold;font-size:55px;line-height:1.25;font-family:'Big John';-inkscape-font-specification:'Big John Bold';letter-spacing:5px;word-spacing:-12px;white-space:pre;fill:#282c2d;fill-opacity:1;stroke:none"
         id="path2561" /><path
         d="m 217.62756,530.87189 -9.58975,-5.16031 -11.83222,21.98862 c -4.30027,7.99146 -1.36967,17.75034 6.62178,22.0506 7.89459,4.24814 17.75033,1.36967 22.0506,-6.62179 l 11.83223,-21.98862 -9.58975,-5.16031 -11.75405,21.84332 c -1.40736,2.61539 -4.68514,3.59971 -7.30053,2.19235 -2.61538,-1.40736 -3.59971,-4.68515 -2.19235,-7.30053 z"
         style="font-weight:bold;font-size:55px;line-height:1.25;font-family:'Big John';-inkscape-font-specification:'Big John Bold';letter-spacing:5px;word-spacing:-12px;white-space:pre;fill:#282c2d;fill-opacity:1;stroke:none"
         id="path2563" /><path
         d="m 265.70757,592.98022 10.59778,2.25492 8.58466,-40.34682 -10.59777,-2.2549 z"
         style="font-weight:bold;font-size:55px;line-height:1.25;font-family:'Big John';-inkscape-font-specification:'Big John Bold';letter-spacing:5px;word-spacing:-12px;white-space:pre;fill:#282c2d;fill-opacity:1;stroke:none"
         id="path2567" /><path
         d="m 289.48845,567.34986 10.70132,0.71242 -2.02765,30.45758 10.81108,0.71972 2.02763,-30.45758 10.92083,0.72703 0.71608,-10.75619 -32.43322,-2.15917 z"
         style="font-weight:bold;font-size:55px;line-height:1.25;font-family:'Big John';-inkscape-font-specification:'Big John Bold';letter-spacing:5px;word-spacing:-12px;white-space:pre;fill:#282c2d;fill-opacity:1;stroke:none"
         id="path2569" /><path
         d="m 336.46631,599.34579 1.90051,-5.61835 16.79328,-1.75754 3.0773,5.09737 10.77615,-1.12781 -23.60323,-39.00503 -4.86841,0.50952 -14.85174,43.02964 z m 8.42956,-24.60609 5.1019,8.59061 -8.36929,0.87591 z"
         style="font-weight:bold;font-size:55px;line-height:1.25;font-family:'Big John';-inkscape-font-specification:'Big John Bold';letter-spacing:5px;word-spacing:-12px;white-space:pre;fill:#282c2d;fill-opacity:1;stroke:none"
         id="path2571" /><path
         d="m 412.0546,582.93835 -12.07843,-39.44204 -10.3601,3.17261 5.70101,18.61664 -24.37024,-12.89953 -4.20716,1.28837 12.07843,39.44204 10.3601,-3.17261 -5.71712,-18.66922 24.33376,12.96822 z"
         style="font-weight:bold;font-size:55px;line-height:1.25;font-family:'Big John';-inkscape-font-specification:'Big John Bold';letter-spacing:5px;word-spacing:-12px;white-space:pre;fill:#282c2d;fill-opacity:1;stroke:none"
         id="path2573" /><path
         d="m 413.17026,559.22994 c 4.74385,10.3496 16.92069,14.8721 27.27028,10.12824 10.3496,-4.74385 14.9221,-16.94361 10.17824,-27.2932 -4.74386,-10.34959 -17.01653,-14.94918 -27.36612,-10.20532 -10.34959,4.74386 -14.82626,17.02069 -10.0824,27.37028 z m 27.62599,-12.72319 c 2.24588,4.8998 0.10233,10.78302 -4.84747,13.05182 -4.89981,2.24588 -10.75594,0.0294 -13.00183,-4.87039 -2.2688,-4.94981 -0.10233,-10.78302 4.79748,-13.02891 4.9498,-2.2688 10.78302,-0.10233 13.05182,4.84748 z"
         style="font-weight:bold;font-size:55px;line-height:1.25;font-family:'Big John';-inkscape-font-specification:'Big John Bold';letter-spacing:5px;word-spacing:-12px;white-space:pre;fill:#282c2d;fill-opacity:1;stroke:none"
         id="path2575" /><path
         d="m 264.30359,563.92344 c 2.29953,-6.65389 -2.15108,-14.13713 -9.95905,-16.84743 -7.80798,-2.71033 -15.88035,0.48426 -18.17986,7.13815 -2.29953,6.65388 2.09009,14.11597 9.89807,16.82627 1.89091,0.6566 3.00989,2.55847 2.45298,4.16996 -0.55736,1.61134 -2.59203,2.36054 -4.48302,1.70415 -1.89091,-0.6566 -2.96689,-2.48534 -2.39199,-4.14881 l -10.675,-3.70546 c -2.37129,6.86184 2.09719,14.29308 9.90516,17.00337 7.80799,2.71034 15.92341,-0.4111 18.22291,-7.06498 0.98811,-2.85909 0.78832,-5.83941 -0.44508,-8.5963 -1.5919,-3.69643 -4.98913,-6.91333 -9.44212,-8.45906 -1.89092,-0.65661 -2.96688,-2.48535 -2.40998,-4.09683 0.55738,-1.61132 2.549,-2.4337 4.44,-1.7773 1.89093,0.65661 3.00991,2.55848 2.45301,4.16999 z"
         style="font-weight:bold;font-size:55px;line-height:1.25;font-family:'Big John';-inkscape-font-specification:'Big John Bold';letter-spacing:-0.3px;word-spacing:-12px;white-space:pre;fill:#282c2d;fill-opacity:1;stroke:none;stroke-width:1.08351"
         id="path2601" /><path
         d="m 472.44652,512.18019 c -4.49685,-5.41669 -13.20323,-5.49183 -19.56961,-0.22122 -6.3664,5.27061 -7.821,13.82939 -3.32414,19.24606 4.49684,5.41668 13.15351,5.533 19.5199,0.26237 1.54198,-1.2763 3.74841,-1.24682 4.8375,0.065 1.08872,1.31215 0.6742,3.44039 -0.86765,4.71686 -1.54198,1.27631 -3.66359,1.24799 -4.78779,-0.1062 l -8.70402,7.20597 c 4.63744,5.58587 13.30863,5.61878 19.67499,0.34815 6.36643,-5.2706 7.90588,-13.82826 3.40904,-19.24492 -1.93223,-2.32751 -4.58412,-3.70218 -7.58096,-4.07721 -3.98609,-0.55573 -8.49835,0.68084 -12.12919,3.68674 -1.54199,1.2763 -3.6636,1.24796 -4.75267,-0.0639 -1.0887,-1.31216 -0.75907,-3.44153 0.78278,-4.71801 1.54201,-1.27631 3.74844,-1.24683 4.83756,0.065 z"
         style="font-weight:bold;font-size:55px;line-height:1.25;font-family:'Big John';-inkscape-font-specification:'Big John Bold';letter-spacing:-0.3px;word-spacing:-12px;white-space:pre;fill:#282c2d;fill-opacity:1;stroke:none;stroke-width:1.08351"
         id="path2603" /></g></g><g
     id="g18504"
     style="stroke:none"
     transform="scale(1.177394)"><g
       id="g18401"
       style="stroke:none"><path
         id="path4775"
         style="fill:#daa41e;fill-opacity:1;stroke:none;stroke-width:0.2;stroke-linecap:butt;stroke-linejoin:miter;stroke-dasharray:none;stroke-opacity:1"
         d="m 318.5,136.47266 c -47.42496,0 -99.91959,11.11043 -142.32227,24.76562 -24.74417,91.13754 -14.0623,180.28296 17.70313,242.08594 26.76332,52.07085 76.03472,97.14565 124.61914,118.08984 48.58442,-20.94419 97.85582,-66.01899 124.61914,-118.08984 31.76543,-61.80298 42.4473,-150.9484 17.70312,-242.08594 C 418.41959,147.58309 365.92496,136.47266 318.5,136.47266 Z"
         sodipodi:nodetypes="scscscs" /><path
         id="path3442"
         style="fill:#ffffff;stroke:none;stroke-width:0.2;stroke-linecap:butt;stroke-linejoin:miter;stroke-dasharray:none;stroke-opacity:1"
         d="m 318.5,139.67188 c -47.42496,0 -96.97037,10.37411 -139.37305,24.02929 -24.74417,91.13754 -14.55449,176.34155 17.21094,238.14453 26.76332,52.07085 73.57769,95.423 122.16211,116.36719 C 367.08442,497.2687 413.89878,453.91655 440.66211,401.8457 472.42754,340.04272 482.61722,254.83871 457.87305,163.70117 415.47037,150.04599 365.92496,139.67188 318.5,139.67188 Z"
         sodipodi:nodetypes="scscscs" /></g><g
       id="g18475"
       style="stroke:none"><g
         id="g18449"
         style="stroke:none"><path
           id="path17114"
           style="fill:#111312;fill-opacity:1;stroke:none;stroke-width:0.305543;stroke-linecap:butt;stroke-linejoin:miter;stroke-dasharray:none;stroke-opacity:1"
           d="m 318.49998,387.70341 c -31.23493,0 -73.25623,2.97456 -109.96559,14.36012 25.31702,45.12502 68.01794,81.84546 109.96559,100.59243 41.94766,-18.74697 84.65018,-55.46741 109.96758,-100.59243 -36.70979,-11.38602 -78.73213,-14.36012 -109.96758,-14.36012 z" /><g
           id="g18439"
           style="stroke:none"><path
             style="fill:#282c2d;fill-opacity:1;stroke:none;stroke-width:0.3;stroke-linecap:square;stroke-linejoin:miter;stroke-dasharray:none"
             d="m 423.72851,400.67188 -65.28125,78.72656 c 27.57162,-19.90023 52.81341,-46.66628 70.01954,-77.33399 -1.56622,-0.48578 -3.15398,-0.93699 -4.73829,-1.39257 z"
             id="path18432" /><path
             style="fill:#282c2d;fill-opacity:1;stroke:none;stroke-width:0.3;stroke-linecap:square;stroke-linejoin:miter;stroke-dasharray:none"
             d="m 382.38672,392.0332 -83.40235,100.58008 c 4.30062,2.4825 8.61685,4.80961 12.94141,6.93164 l 86.88672,-104.7832 c -5.47034,-1.04766 -10.95756,-1.9489 -16.42578,-2.72852 z"
             id="path18430" /><path
             style="fill:#282c2d;fill-opacity:1;stroke:none;stroke-width:0.3;stroke-linecap:square;stroke-linejoin:miter;stroke-dasharray:none"
             d="m 256.79492,391.72461 c -7.22394,0.98735 -14.49575,2.19438 -21.71875,3.65234 L 217.5,416.57227 c 2.75746,4.11706 5.65202,8.1433 8.67383,12.08007 z"
             id="path18428" /><path
             style="fill:#282c2d;fill-opacity:1;stroke:none;stroke-width:0.3;stroke-linecap:square;stroke-linejoin:miter;stroke-dasharray:none"
             d="m 338.50976,388.15039 -69.58203,83.91211 c 3.78213,3.01552 7.61122,5.92406 11.4961,8.67383 l 75.92187,-91.5586 c -6.12711,-0.48127 -12.05102,-0.79394 -17.83594,-1.02734 z"
             id="path18426" /><path
             style="fill:#282c2d;fill-opacity:1;stroke:none;stroke-width:0.3;stroke-linecap:square;stroke-linejoin:miter;stroke-dasharray:none"
             d="m 311.02539,387.79492 c -6.13686,0.0913 -12.52813,0.28592 -19.22852,0.65039 l -49.25781,59.4043 c 3.32039,3.51031 6.74428,6.89773 10.23633,10.19336 z"
             id="rect11040" /></g><path
           id="rect3198"
           style="fill:#ffffff;stroke:none;stroke-width:0.350129;stroke-linecap:square"
           d="m 303.24414,399.33398 9.58789,10.30079 v 23.04627 h -25.64844 l -10.29883,-9.58789 v 29.5957 l 10.29883,-9.58984 h 25.64844 v 28.2506 l -9.58789,10.30078 h 29.5957 L 323.25,471.34961 v -28.2506 h 25.64844 l 10.30078,9.58984 v -29.5957 l -10.30078,9.58789 H 323.25 v -23.04627 l 9.58984,-10.30079 z m 12.70898,12.31836 h 4.17774 v 24.14979 h 26.75 v 4.17774 h -26.75 v 29.35216 h -4.17774 v -29.35216 h -26.75195 v -4.17774 h 26.75195 z"
           sodipodi:nodetypes="cccccccccccccccccccccccccccccccccc" /></g><g
         id="g18422"
         style="stroke:none"><path
           id="path15242"
           style="fill:#ffffff;stroke:none;stroke-width:0.201399;stroke-linecap:butt;stroke-linejoin:miter;stroke-dasharray:none;stroke-opacity:1"
           d="m 318.5,152.8428 c -47.75675,0 -86.26317,8.11409 -128.96251,21.86482 -18.97771,72.96651 -17.1617,144.42966 10.89603,210.1595 0.95107,2.22804 2.00992,4.41527 3.04853,6.61039 36.51638,-13.08827 77.4925,-17.12093 115.01795,-17.12093 37.52625,0 78.50293,4.03395 115.01991,17.12289 1.03889,-2.19564 2.09722,-4.38377 3.04853,-6.61235 28.05772,-65.72984 29.87178,-137.19299 10.89406,-210.1595 C 404.76317,160.95689 366.25674,152.8428 318.5,152.8428 Z" /><path
           id="path5613"
           style="fill:#282c2d;fill-opacity:1;stroke:none;stroke-width:0.2;stroke-linecap:butt;stroke-linejoin:miter;stroke-dasharray:none;stroke-opacity:1"
           d="m 318.5,152.84375 c -23.57667,0 -44.89102,1.99331 -65.57617,5.65039 l -66.1875,27.76953 c -5.16311,22.41997 -8.31185,44.67185 -9.31641,66.64063 66.21948,-31.32762 132.14059,-60.36695 235.97852,-69.07422 -38.72855,7.55994 -72.62854,27.10218 -102.64649,43.69922 -38.8946,21.50497 -76.19859,43.03604 -108.71094,69.84375 44.62084,-22.99375 92.29825,-49.04448 132.22071,-67.33985 -52.31261,31.54718 -105.18187,64.9714 -150.0918,104.25586 3.823,17.17626 9.21223,34.05897 16.26367,50.57813 0.95107,2.22804 2.01022,4.41425 3.04883,6.60937 36.51634,-13.08825 77.49217,-17.11914 115.01758,-17.11914 37.52621,0 78.50259,4.03217 115.01953,17.1211 1.03889,-2.19564 2.09752,-4.38275 3.04883,-6.61133 28.05769,-65.72978 29.87223,-137.19372 10.89453,-210.16016 -18.80711,-6.05657 -36.82142,-10.9398 -55.15039,-14.59765 -60.73001,10.26111 -129.57087,26.25512 -192.23633,45.83984 39.43825,-19.60122 87.2314,-37.22946 136.77148,-52.6836 -5.9792,-0.2739 -12.08019,-0.42187 -18.34765,-0.42187 z" /><g
           id="g18410"
           style="stroke:none"><path
             id="path7137"
             style="color:#000000;fill:#daa41e;fill-opacity:1;stroke:none;stroke-width:0.2;stroke-linecap:square;stroke-dasharray:none;stroke-opacity:1"
             d="m 421.25976,170.03516 c -0.91842,-0.0322 -1.8202,0.018 -2.70312,0.14843 -3.53168,0.52164 -6.60631,2.23275 -9.35742,4.41407 l -1.10352,0.87695 -0.21484,9.64258 -6.89063,0.26367 0.2461,-10.33594 -3.20313,0.13477 c -5.84865,0.24669 -11.99867,1.08672 -16.83008,5.27929 l -1.03515,0.89649 v 12.18555 l -0.26563,0.17968 -3.21289,-10.15429 -11.89062,9.97265 -0.18946,1.07617 c -1.89152,10.72579 -5.17933,21.21133 -5.08398,34.21094 0.0575,7.84431 1.74523,13.38214 4.87891,16.85938 1.99317,2.21169 4.67467,3.22476 7.36328,3.3164 l -6.87696,85.03125 -10.22461,-81.03515 -96.21875,70.20898 -0.084,-10.69336 -5.68555,-8.94336 -3.17382,10.61328 -0.12305,-0.0293 -0.11719,-12.58789 -1.43555,-0.86524 c -2.48558,-1.49792 -5.37265,-2.29622 -8.27343,-1.72461 l -1.99024,0.39258 -1.79297,9.46289 -0.51562,-0.30469 1.53906,-7.8164 -1.42578,-1.13672 c -1.50179,-1.19781 -3.40865,-2.2379 -5.58789,-2.85156 -2.11968,-0.59689 -4.57284,-0.75733 -6.95508,0.18164 l 0.33594,-1.54492 -15.51367,7.97851 -0.30274,1.37891 c -3.88103,17.65079 -9.03591,34.66349 -11.23242,53.3789 l -0.7832,6.67774 1.90234,-1.3418 -0.21484,1.14258 -1.75586,7.2793 c 1.6165,4.36076 3.33098,8.70107 5.17187,13.01367 0.95107,2.22804 2.01022,4.41425 3.04883,6.60937 36.51634,-13.08825 77.49217,-17.11914 115.01758,-17.11914 37.52621,0 78.50259,4.03217 115.01953,17.1211 1.03889,-2.19564 2.09752,-4.38275 3.04883,-6.61133 27.78673,-65.09501 29.80247,-135.81619 11.40625,-208.04883 l -7.02539,-2.39258 -1.95508,12.95899 -7.80469,-2.81836 0.23828,-11.07813 -1.57617,-0.8789 c -2.93768,-1.63902 -5.83649,-2.47752 -8.5918,-2.57422 z" /><path
             id="path7131"
             style="color:#000000;fill:#ffffff;stroke:none;stroke-width:0.2;stroke-linecap:square;stroke-dasharray:none"
             d="m 421.17187,173.02734 c -3.71285,-0.11887 -6.98813,1.44711 -10.10937,3.92188 l -0.24609,11.05859 -12.90235,0.49219 0.24609,-10.32227 c -5.63607,0.23773 -10.97867,1.06403 -14.99218,4.54688 v 12.41016 l -4.91406,3.31835 -3.07227,-9.70703 -7.61914,6.38868 c -1.9343,10.96822 -5.12861,21.19453 -5.03711,33.66992 0.10863,14.80697 6.66883,19.28435 12.5332,16.71289 l -8.35547,103.3418 -2.94921,0.12304 -11.42774,-90.5625 -96.83008,70.65625 -0.12304,-15.35937 -2.08985,-2.21289 -1.59765,6.26757 -5.28321,-1.22851 -0.12304,-13.27149 c -2.04802,-1.23421 -4.09652,-1.75513 -6.14454,-1.35156 l -2.21093,11.67383 -6.02149,-3.56445 1.59766,-8.10938 c -2.33474,-1.86215 -6.51408,-3.5614 -9.70899,-2.21289 l -2.21093,10.44531 -5.40625,3.19532 2.70312,-12.41211 -8.60156,4.42383 c -3.91316,17.79682 -9.02621,34.70385 -11.18359,53.08593 l 2.08984,-1.47461 c 28.5071,-14.78941 42.68537,-0.24925 58.24609,15.11328 -15.41115,-12.58345 -37.77078,-20.25017 -58.36914,-12.77929 l -1.10547,5.89843 -2.77734,11.51563 c 1.06491,2.7206 2.10463,5.44691 3.25781,8.14844 0.95107,2.22804 2.01022,4.41425 3.04883,6.60937 36.51634,-13.08825 77.49217,-17.11914 115.01758,-17.11914 37.52621,0 78.50259,4.03217 115.01953,17.1211 1.03889,-2.19564 2.09752,-4.38275 3.04883,-6.61133 27.34331,-64.05622 29.70339,-133.5624 12.24414,-204.59375 l -5.43164,-1.84961 -1.9668,13.02539 -13.27148,-4.79297 0.24609,-11.42773 c -2.60382,-1.45275 -4.98908,-2.12985 -7.2168,-2.20118 z" /><path
             id="path8298"
             style="color:#000000;fill:#daa41e;fill-opacity:1;stroke:none;stroke-width:0.2;stroke-linecap:square;stroke-dasharray:none"
             d="m 424.03516,272.86328 -30.75782,10.56055 -0.51756,39.26562 9.6211,-2.43164 0.45901,-32.82031 z m -17.54297,8.80273 -6.13281,4.49024 -0.45117,32.14844 -4.60548,1.16406 0.45118,-34.23242 z" /><g
             id="g15088"
             transform="translate(3.9570312)"
             style="stroke:none"><path
               id="path8172"
               style="color:#000000;fill:#daa41e;fill-opacity:1;stroke:none;stroke-width:5;stroke-linecap:square"
               d="m 312.92969,295.33789 -3.73828,2.13281 -5.99414,3.41992 v 13.13868 l -10.35157,6.48242 v 11.30078 l 9.7461,-6.10352 v 7.86914 l -16.56836,10.60938 v 11.32617 l 15.42187,-9.87695 V 362.25 l 5.41797,1.45703 5.34766,-3.85351 V 338.74219 L 328.125,328.55078 v -11.32617 l -15.08203,9.6582 v -7.71679 l 9.33203,-5.84375 v -11.30274 l -9.44531,5.91602 z"
               sodipodi:nodetypes="ccccccccccccccccccccccc" /><path
               id="rect7310"
               style="fill:#ffffff;stroke:none;stroke-width:0.2;stroke-linecap:square;stroke-linejoin:bevel"
               d="m 310.42969,299.64258 -4.73242,2.69922 v 13.07226 l -10.35157,6.48242 v 5.4004 l 9.7461,-6.10352 v 13.75195 l -16.56836,10.60938 v 5.38867 l 15.42187,-9.87695 v 19.26757 l 2.41992,0.6504 3.34571,-2.41016 V 337.375 L 325.625,327.18359 v -5.38867 l -15.08203,9.6582 v -13.67187 l 9.33203,-5.84375 v -5.40234 l -9.44531,5.91601 z" /></g><path
             id="path8377"
             style="color:#000000;fill:#daa41e;fill-opacity:1;stroke:none;stroke-width:0.2;stroke-dasharray:none"
             d="m 429.50976,235.87891 c -8.51934,0.081 -17.27553,1.08745 -26.05468,2.74804 -9.03356,1.70871 -16.37574,4.65192 -23.49805,6.91016 7.52728,-0.72296 13.12917,-2.40445 23.85352,-2.43945 21.56361,-0.0703 41.09378,2.68934 55.7871,10.0625 -0.0387,-0.85944 -0.10122,-1.72173 -0.14648,-2.58204 -15.02989,-7.18201 -34.44644,-9.71241 -55.63867,-9.73046 8.79376,-1.41587 17.40064,-2.63474 25.7168,-2.7168 10.38946,-0.10252 20.32557,1.56954 29.60351,6.8457 -0.0606,-0.87811 -0.0888,-1.75189 -0.15625,-2.63086 -6.73201,-3.57672 -13.79318,-5.42856 -21.01562,-6.12304 -2.79356,-0.26862 -5.61138,-0.37074 -8.45118,-0.34375 z" /></g></g></g><g
       id="g18453"
       style="stroke:none"><path
         id="path5554"
         style="fill:#daa41e;fill-opacity:1;stroke:none;stroke-width:0.2;stroke-linecap:butt;stroke-linejoin:miter;stroke-dasharray:none;stroke-opacity:1"
         d="m 318.5,150.37305 c -47.42486,0 -87.8767,9.14366 -130.2793,22.79883 -20.81194,74.17976 -17.75082,149.60083 10.32813,212.38671 1.42974,3.19697 2.96163,6.36234 4.5664,9.5 36.55328,-13.33176 77.72183,-17.41211 115.38477,-17.41211 37.66294,0 78.83149,4.08035 115.38476,17.41211 1.60478,-3.13766 3.13667,-6.30303 4.56641,-9.5 C 466.53009,322.77271 469.59121,247.35164 448.7793,173.17188 406.3767,159.51671 365.92486,150.37305 318.5,150.37305 Z m 0,3.29883 c 47.42486,0 85.66381,8.05772 128.06641,21.71289 18.84583,72.45943 17.04437,143.42617 -10.81836,208.69921 -0.9447,2.2131 -1.99568,4.38602 -3.02735,6.56641 -36.2632,-12.99798 -76.95524,-17.00391 -114.2207,-17.00391 -37.26466,0 -77.95614,4.00465 -114.21875,17.00196 -1.03139,-2.17987 -2.08289,-4.3519 -3.02734,-6.56446 C 173.39115,318.81094 171.58776,247.8442 190.43359,175.38477 232.83619,161.7296 271.07514,153.67188 318.5,153.67188 Z" /><path
         id="path14443"
         style="fill:#daa41e;fill-opacity:1;stroke:none;stroke-width:0.2;stroke-linecap:butt;stroke-linejoin:miter;stroke-dasharray:none;stroke-opacity:1"
         d="m 318.5,386.04688 c -31.79945,-10e-6 -74.96474,3.16715 -111.91602,15.39843 25.82382,46.4904 69.77742,85.33567 111.91602,104.16797 42.13859,-18.8323 86.0922,-57.67757 111.91601,-104.16797 C 393.46475,389.21403 350.29945,386.04687 318.5,386.04688 Z m 0,2.69921 c 30.66877,0 71.92885,2.92016 107.97265,14.09961 C 401.61456,447.15207 359.68664,483.20642 318.5,501.61328 277.31336,483.20642 235.38702,447.15207 210.5293,402.8457 246.57268,391.6667 287.83173,388.74609 318.5,388.74609 Z" /></g></g></svg>
